# xmcd CD database file
#
# Track frame offsets:
#	150
#	14442
#	29632
#	49494
#	63513
#	78870
#	95506
#	114555
#	131194
#	151822
#	169678
#	184703
#	213703
#
# Disc length: 2942 seconds
#
# Revision: 1
# Processed by: cddbd v1.5.2PL0 Copyright (c) Steve Scherf et al.
# Submitted via: CDex 1.51
#
DISCID=b60b7c0d
DTITLE=Jason Aldean - Relentless
DYEAR=2007
DGENRE=Country
TTITLE0=Johnny Cash
TTITLE1=Laughed Until We Cried
TTITLE2=Do You Wish It Was Me
TTITLE3=I Use What I Got
TTITLE4=Who's Kissing You Tonight
TTITLE5=Relentless
TTITLE6=My Memory Ain't What It Used To Be
TTITLE7=No
TTITLE8=Back In This Cigarette
TTITLE9=Grown Woman
TTITLE10=I Break Everything I Touch
TTITLE11=Not Every Man Lives
TTITLE12=Data Track
EXTD=YEAR: 2007
EXTT0=
EXTT1=
EXTT2=
EXTT3=
EXTT4=
EXTT5=
EXTT6=
EXTT7=
EXTT8=
EXTT9=
EXTT10=
EXTT11=
EXTT12=
PLAYORDER=
